# xmcd CD database file
#
# Track frame offsets:
#	150
#	23302
#	41915
#	75022
#	95924
#	114382
#	141982
#	170503
#	189403
#	212319
#	238382
#	269605
#
# Disc length: 4036 seconds
#
# Revision: 0
# Processed by: cddbd v1.5.2PL0 Copyright (c) Steve Scherf et al.
# Submitted via: CDex 1.79
#
DISCID=9e0fc20c
DTITLE=Various Performers - This is Venus Jazz 2013 [CD2]
DYEAR=2013
DGENRE=Jazz
TTITLE0=Solfeggietto - Cyrus Chestnut Trio
TTITLE1=Lullaby Of The Leaves - Nicolas Montier
TTITLE2=Stolen Moments - Israel -Eddie Higgins Trio
TTITLE3=You'd Be So Nice To Come Home To - Alexis Cole and One For All
TTITLE4=Manha De Carnaval - Lee Conitz
TTITLE5=All Of Me - Joe Beck Trio
TTITLE6=The More I See You - Eddie Higgins and Scott Hamilton
TTITLE7=Reflections - Francesco Cafiso
TTITLE8=The Darkness of Your Eyes - Tessa Souter
TTITLE9=Early Autumn - Joel Frahm Quartet
TTITLE10=Beautiful Love - Kenny Barron Trio
TTITLE11=Besame Mucho - Barney Wilen Quintet
EXTD=YEAR: 2013
EXTT0=
EXTT1=
EXTT2=
EXTT3=
EXTT4=
EXTT5=
EXTT6=
EXTT7=
EXTT8=
EXTT9=
EXTT10=
EXTT11=
PLAYORDER=
